<?xml version="1.0" standalone="no"?>
<svg version="1.0" xmlns="http://www.w3.org/2000/svg"
 width="496.000000pt" height="419.000000pt" viewBox="0 0 496.000000 419.000000"
 preserveAspectRatio="xMidYMid meet">

<g transform="translate(0.000000,419.000000) scale(0.100000,-0.100000)"
fill="#000000" stroke="none">
<path d="M700 4064 c-14 -2 -52 -9 -85 -15 -141 -24 -288 -90 -363 -162 -49
-47 -108 -172 -122 -259 -25 -146 8 -455 79 -744 81 -327 210 -630 359 -844
292 -418 1148 -1313 1387 -1450 l40 -23 248 58 c243 56 248 57 269 39 11 -11
133 -141 270 -291 l250 -271 51 15 c29 9 391 116 806 239 415 122 757 227 761
231 4 4 11 121 14 258 l7 250 -321 260 -321 260 6 220 c10 353 9 378 -11 416
-37 74 -408 435 -724 707 -313 269 -592 474 -834 612 -368 211 -901 408 -1271
471 -114 19 -433 34 -495 23z m304 -79 c256 -14 639 -116 996 -265 583 -243
1076 -601 1766 -1282 99 -98 186 -178 193 -178 17 0 51 -78 51 -120 0 -23 -3
-30 -9 -22 -11 18 -21 -83 -22 -232 0 -67 -4 -142 -7 -169 l-7 -47 -105 86
c-58 48 -123 102 -146 120 l-41 34 -759 -181 c-417 -100 -760 -182 -760 -182
-1 -1 -5 -108 -9 -238 l-7 -237 150 -163 c83 -90 148 -165 144 -166 -4 -2
-101 -25 -217 -52 -236 -55 -224 -55 -315 17 -79 63 -391 355 -500 468 -454
470 -759 838 -897 1084 -175 309 -324 875 -323 1224 1 169 22 243 98 333 77
93 245 156 457 171 61 5 121 7 135 6 14 -2 74 -6 134 -9z m3126 -2535 c256
-209 470 -384 477 -389 6 -6 9 -27 7 -48 -2 -21 -6 -113 -10 -205 -5 -143 -8
-168 -23 -172 -23 -7 -517 -154 -1066 -317 l-469 -140 -62 68 c-34 37 -224
244 -422 458 l-361 390 -1 195 0 195 213 49 c116 27 442 105 722 172 281 67
515 123 520 123 6 0 219 -171 475 -379z"/>
</g>
</svg>
